<svg xmlns="http://www.w3.org/2000/svg" xmlns:xlink="http://www.w3.org/1999/xlink" fill="#000000" height="800px" width="800px" version="1.1" id="Layer_1" viewBox="0 0 480 480" xml:space="preserve">
<g>
	<g>
		<g>
			<path d="M207.843,363.617c4.653,3.444,16.876,21.806,26.729,40.246c1.745,3.266,5.142,5.288,8.818,5.288     c0.165,0,0.331-0.004,0.496-0.012c3.864-0.191,7.271-2.594,8.749-6.17c7.47-18.084,17.496-36.247,21.904-39.796     c86.217-16.434,148.68-91.953,148.68-179.954C423.219,82.191,341.027,0,240,0S56.781,82.191,56.781,183.219     c0,43.477,15.504,85.632,43.657,118.699C128.046,334.345,166.155,356.228,207.843,363.617z M240,20     c89.999,0,163.219,73.22,163.219,163.219c0,78.694-56.064,146.182-133.315,160.474c-5.83,1.083-12.902,5.315-25.073,28.752     c-0.845,1.628-1.663,3.248-2.444,4.829c-1.077-1.779-2.209-3.614-3.374-5.458c-13.617-21.545-20.553-26.67-26.778-27.736     c-78.487-13.447-135.454-81.1-135.454-160.862C76.781,93.22,150.001,20,240,20z"/>
			<path d="M321.907,371.244c-5.391-1.208-10.737,2.184-11.944,7.573c-1.207,5.389,2.184,10.737,7.573,11.944     c38.87,8.706,56.574,22.029,56.574,30.724c0,5.96-9.235,16.039-35.263,24.832C312.726,455.141,277.8,460,240.501,460     c-37.309,0-72.242-4.859-98.364-13.684c-26.03-8.793-35.266-18.872-35.266-24.832c0-8.012,15.83-20.593,50.585-29.284     c5.358-1.339,8.615-6.769,7.275-12.127c-1.34-5.358-6.768-8.616-12.127-7.275c-42.389,10.599-65.733,27.89-65.733,48.686     c0,12.442,8.478,30.138,48.865,43.78C163.867,474.767,201.074,480,240.501,480c39.418,0,76.618-5.233,104.746-14.735     c40.385-13.643,48.862-31.338,48.862-43.78C394.109,399.515,368.467,381.672,321.907,371.244z"/>
			<path d="M137.326,234.744c0,5.523,4.477,10,10,10h46.577c5.523,0,10-4.477,10-10V198.16h73.16v36.584c0,5.523,4.477,10,10,10     h46.584c5.523,0,10-4.477,10-10V198.16h24.935c5.523,0,10-4.477,10-10c0-5.523-4.477-10-10-10h-24.935v-36.577     c0-5.523-4.477-10-10-10h-46.584c-5.523,0-10,4.477-10,10v36.577h-73.16v-36.577c0-5.523-4.477-10-10-10h-46.577     c-5.523,0-10,4.477-10,10v36.577h-24.934c-5.523,0-10,4.477-10,10c0,5.523,4.477,10,10,10h24.934V234.744z M297.063,151.583     h26.584v73.161h-26.584V151.583z M157.326,151.583h26.577v73.161h-26.577V151.583z"/>
		</g>
	</g>
</g>
<script xmlns=""/></svg>
